<svg xmlns:dc="http://purl.org/dc/elements/1.1/" xmlns:cc="http://creativecommons.org/ns#" xmlns:rdf="http://www.w3.org/1999/02/22-rdf-syntax-ns#" xmlns:svg="http://www.w3.org/2000/svg" xmlns="http://www.w3.org/2000/svg" xmlns:sodipodi="http://sodipodi.sourceforge.net/DTD/sodipodi-0.dtd" xmlns:inkscape="http://www.inkscape.org/namespaces/inkscape" version="1.1" x="0px" y="0px" viewBox="0 0 100 125"><g transform="translate(0,-952.36218)"><path style="color:#000000;enable-background:accumulate;" d="m 7.9996437,966.36284 1.3438,14.6563 9.2187003,7.5 9.375,-0.8438 0.875,9.1562 3.0625,2.5 9.375,-0.8437 0.8438,9.15626 5.125,4.1562 c -0.4395,2.0771 -0.5509,4.2786 -0.3438,6.5 1.1321,12.1361 12.1312,21.0739 24.5625,19.9688 12.4314,-1.1051 21.6008,-11.8326 20.4687,-23.9688 -1.132,-12.1361 -12.1311,-21.07396 -24.5624,-19.96876 -2.2756,0.2023 -4.4867,0.7029 -6.5,1.5 l -35.8126,-29.125 -17.0312003,-0.3437 z m 61.4688003,43.49996 c 3.341,0.034 6.1591,2.5253 6.4687,5.8437 0.3301,3.5398 -2.343,6.6777 -5.9687,7 -3.6258,0.3224 -6.8261,-2.2727 -7.1563,-5.8124 -0.3301,-3.5396 2.343,-6.6777 5.9687,-7 0.2267,-0.02 0.4648,-0.034 0.6876,-0.031 z" fill="#000000" fill-opacity="1" stroke="none" marker="none" visibility="visible" display="inline" overflow="visible"/></g><text x="0" y="115" fill="#000000" font-size="5px" font-weight="bold" font-family="'Helvetica Neue', Helvetica, Arial-Unicode, Arial, Sans-serif">Created by Nibras@design</text><text x="0" y="120" fill="#000000" font-size="5px" font-weight="bold" font-family="'Helvetica Neue', Helvetica, Arial-Unicode, Arial, Sans-serif">from the Noun Project</text></svg>